<mxfile host="65bd71144e">
    <diagram id="EDmUcFBYBq6rv2m6tnhu" name="Page-1">
        <mxGraphModel dx="522" dy="125" grid="1" gridSize="10" guides="1" tooltips="1" connect="1" arrows="1" fold="1" page="1" pageScale="1" pageWidth="850" pageHeight="1100" math="0" shadow="0">
            <root>
                <mxCell id="0"/>
                <mxCell id="1" parent="0"/>
                <mxCell id="11" style="edgeStyle=none;html=1;entryX=0.5;entryY=0;entryDx=0;entryDy=0;fontColor=#0000FF;" parent="1" source="2" target="3" edge="1">
                    <mxGeometry relative="1" as="geometry"/>
                </mxCell>
                <mxCell id="12" style="edgeStyle=none;html=1;entryX=0.5;entryY=0;entryDx=0;entryDy=0;fontColor=#0000FF;" parent="1" source="2" target="4" edge="1">
                    <mxGeometry relative="1" as="geometry"/>
                </mxCell>
                <mxCell id="2" value="&lt;font color=&quot;#0000ff&quot;&gt;myTradingCompany.com&lt;/font&gt;" style="rounded=0;whiteSpace=wrap;html=1;fillColor=#99CCFF;" parent="1" vertex="1">
                    <mxGeometry x="295" y="220" width="220" height="60" as="geometry"/>
                </mxCell>
                <mxCell id="13" style="edgeStyle=none;html=1;fontColor=#0000FF;" parent="1" source="3" target="5" edge="1">
                    <mxGeometry relative="1" as="geometry"/>
                </mxCell>
                <mxCell id="3" value="&lt;font color=&quot;#0000ff&quot;&gt;/electronicsTrading&lt;/font&gt;" style="rounded=0;whiteSpace=wrap;html=1;fillColor=#99FFCC;" parent="1" vertex="1">
                    <mxGeometry x="150" y="360" width="220" height="60" as="geometry"/>
                </mxCell>
                <mxCell id="14" style="edgeStyle=none;html=1;entryX=0.5;entryY=0;entryDx=0;entryDy=0;fontColor=#0000FF;" parent="1" source="4" target="8" edge="1">
                    <mxGeometry relative="1" as="geometry"/>
                </mxCell>
                <mxCell id="4" value="&lt;font color=&quot;#0000ff&quot;&gt;/carTrading&lt;/font&gt;" style="rounded=0;whiteSpace=wrap;html=1;fillColor=#99FFCC;" parent="1" vertex="1">
                    <mxGeometry x="480" y="360" width="220" height="60" as="geometry"/>
                </mxCell>
                <mxCell id="5" value="&lt;font color=&quot;#0000ff&quot;&gt;index.html&lt;/font&gt;" style="rounded=0;whiteSpace=wrap;html=1;fillColor=#FFFFFF;" parent="1" vertex="1">
                    <mxGeometry x="185" y="460" width="150" height="20" as="geometry"/>
                </mxCell>
                <mxCell id="6" value="&lt;font color=&quot;#0000ff&quot;&gt;assets/&lt;/font&gt;" style="rounded=0;whiteSpace=wrap;html=1;fillColor=#FFFFFF;" parent="1" vertex="1">
                    <mxGeometry x="185" y="490" width="150" height="20" as="geometry"/>
                </mxCell>
                <mxCell id="7" value="&lt;font color=&quot;#0000ff&quot;&gt;components/&lt;/font&gt;" style="rounded=0;whiteSpace=wrap;html=1;fillColor=#FFFFFF;" parent="1" vertex="1">
                    <mxGeometry x="185" y="520" width="150" height="20" as="geometry"/>
                </mxCell>
                <mxCell id="8" value="&lt;font color=&quot;#0000ff&quot;&gt;index.html&lt;/font&gt;" style="rounded=0;whiteSpace=wrap;html=1;fillColor=#FFFFFF;" parent="1" vertex="1">
                    <mxGeometry x="515" y="460" width="150" height="20" as="geometry"/>
                </mxCell>
                <mxCell id="9" value="&lt;font color=&quot;#0000ff&quot;&gt;assets/&lt;/font&gt;" style="rounded=0;whiteSpace=wrap;html=1;fillColor=#FFFFFF;" parent="1" vertex="1">
                    <mxGeometry x="515" y="490" width="150" height="20" as="geometry"/>
                </mxCell>
                <mxCell id="10" value="&lt;font color=&quot;#0000ff&quot;&gt;components/&lt;/font&gt;" style="rounded=0;whiteSpace=wrap;html=1;fillColor=#FFFFFF;" parent="1" vertex="1">
                    <mxGeometry x="515" y="520" width="150" height="20" as="geometry"/>
                </mxCell>
                <mxCell id="15" value="&lt;font&gt;/electronicsTrading/assets/logo.png&lt;br&gt;&lt;/font&gt;" style="rounded=0;whiteSpace=wrap;html=1;fillColor=#0050ef;fontColor=#FFFFFF;strokeColor=#001DBC;" parent="1" vertex="1">
                    <mxGeometry x="135" y="590" width="250" height="20" as="geometry"/>
                </mxCell>
                <mxCell id="16" value="&lt;font&gt;/carTrading/assets/logo.png&lt;br&gt;&lt;/font&gt;" style="rounded=0;whiteSpace=wrap;html=1;fillColor=#0050ef;fontColor=#FFFFFF;strokeColor=#001DBC;" parent="1" vertex="1">
                    <mxGeometry x="480" y="590" width="250" height="20" as="geometry"/>
                </mxCell>
            </root>
        </mxGraphModel>
    </diagram>
</mxfile>